<mxfile host="app.diagrams.net" agent="Mozilla/5.0 (Windows NT 10.0; Win64; x64) AppleWebKit/537.36 (KHTML, like Gecko) Chrome/127.0.0.0 Safari/537.36" version="24.7.5">
  <diagram name="Page-1" id="13e1069c-82ec-6db2-03f1-153e76fe0fe0">
    <mxGraphModel dx="607" dy="317" grid="1" gridSize="10" guides="1" tooltips="1" connect="1" arrows="1" fold="1" page="1" pageScale="1" pageWidth="1100" pageHeight="850" background="none" math="0" shadow="0">
      <root>
        <mxCell id="0" />
        <mxCell id="1" parent="0" />
        <mxCell id="cYfilha8GZwluoW0JjjM-3" style="edgeStyle=orthogonalEdgeStyle;rounded=0;orthogonalLoop=1;jettySize=auto;html=1;dashed=1;" edge="1" parent="1" source="cYfilha8GZwluoW0JjjM-1">
          <mxGeometry relative="1" as="geometry">
            <mxPoint x="105" y="460" as="targetPoint" />
          </mxGeometry>
        </mxCell>
        <mxCell id="cYfilha8GZwluoW0JjjM-1" value="Actor" style="shape=umlActor;verticalLabelPosition=top;verticalAlign=bottom;html=1;outlineConnect=0;align=center;horizontal=1;labelPosition=center;" vertex="1" parent="1">
          <mxGeometry x="90" y="100" width="30" height="60" as="geometry" />
        </mxCell>
        <mxCell id="cYfilha8GZwluoW0JjjM-2" value="Route" style="html=1;whiteSpace=wrap;" vertex="1" parent="1">
          <mxGeometry x="160" y="120" width="80" height="40" as="geometry" />
        </mxCell>
        <mxCell id="cYfilha8GZwluoW0JjjM-4" value="View" style="html=1;whiteSpace=wrap;" vertex="1" parent="1">
          <mxGeometry x="270" y="120" width="80" height="40" as="geometry" />
        </mxCell>
        <mxCell id="cYfilha8GZwluoW0JjjM-5" value="Controller" style="html=1;whiteSpace=wrap;" vertex="1" parent="1">
          <mxGeometry x="390" y="120" width="80" height="40" as="geometry" />
        </mxCell>
        <mxCell id="cYfilha8GZwluoW0JjjM-6" value="Service" style="html=1;whiteSpace=wrap;" vertex="1" parent="1">
          <mxGeometry x="510" y="120" width="80" height="40" as="geometry" />
        </mxCell>
        <mxCell id="cYfilha8GZwluoW0JjjM-7" value="Route" style="html=1;whiteSpace=wrap;" vertex="1" parent="1">
          <mxGeometry x="630" y="120" width="80" height="40" as="geometry" />
        </mxCell>
        <mxCell id="cYfilha8GZwluoW0JjjM-8" value="Controller /&lt;div&gt;Model&lt;/div&gt;" style="html=1;whiteSpace=wrap;" vertex="1" parent="1">
          <mxGeometry x="730" y="120" width="80" height="40" as="geometry" />
        </mxCell>
        <mxCell id="cYfilha8GZwluoW0JjjM-9" value="Database" style="html=1;whiteSpace=wrap;" vertex="1" parent="1">
          <mxGeometry x="860" y="120" width="80" height="40" as="geometry" />
        </mxCell>
        <mxCell id="cYfilha8GZwluoW0JjjM-10" value="" style="endArrow=classic;startArrow=classic;html=1;rounded=0;labelPosition=center;verticalLabelPosition=top;align=center;verticalAlign=bottom;" edge="1" parent="1">
          <mxGeometry width="50" height="50" relative="1" as="geometry">
            <mxPoint x="140" y="110" as="sourcePoint" />
            <mxPoint x="610" y="110" as="targetPoint" />
          </mxGeometry>
        </mxCell>
        <mxCell id="cYfilha8GZwluoW0JjjM-11" value="Client-Side (Angular)" style="edgeLabel;html=1;align=center;verticalAlign=bottom;resizable=0;points=[];horizontal=1;fontSize=11;" vertex="1" connectable="0" parent="cYfilha8GZwluoW0JjjM-10">
          <mxGeometry relative="1" as="geometry">
            <mxPoint as="offset" />
          </mxGeometry>
        </mxCell>
        <mxCell id="cYfilha8GZwluoW0JjjM-12" value="" style="endArrow=classic;startArrow=classic;html=1;rounded=0;" edge="1" parent="1">
          <mxGeometry width="50" height="50" relative="1" as="geometry">
            <mxPoint x="610" y="110" as="sourcePoint" />
            <mxPoint x="850" y="110" as="targetPoint" />
          </mxGeometry>
        </mxCell>
        <mxCell id="cYfilha8GZwluoW0JjjM-13" value="Server-Side(Node, Express, Mongoose)" style="edgeLabel;html=1;align=center;verticalAlign=bottom;resizable=0;points=[];" vertex="1" connectable="0" parent="cYfilha8GZwluoW0JjjM-12">
          <mxGeometry relative="1" as="geometry">
            <mxPoint as="offset" />
          </mxGeometry>
        </mxCell>
        <mxCell id="cYfilha8GZwluoW0JjjM-14" value="" style="endArrow=classic;startArrow=classic;html=1;rounded=0;" edge="1" parent="1">
          <mxGeometry width="50" height="50" relative="1" as="geometry">
            <mxPoint x="850" y="110" as="sourcePoint" />
            <mxPoint x="990" y="110" as="targetPoint" />
          </mxGeometry>
        </mxCell>
        <mxCell id="cYfilha8GZwluoW0JjjM-15" value="Data-Side (MongoDB)" style="edgeLabel;html=1;align=center;verticalAlign=bottom;resizable=0;points=[];" vertex="1" connectable="0" parent="cYfilha8GZwluoW0JjjM-14">
          <mxGeometry relative="1" as="geometry">
            <mxPoint as="offset" />
          </mxGeometry>
        </mxCell>
        <mxCell id="cYfilha8GZwluoW0JjjM-16" value="" style="rounded=0;whiteSpace=wrap;html=1;fillColor=#eeeeee;strokeColor=#36393d;" vertex="1" parent="1">
          <mxGeometry x="300" y="180" width="20" height="260" as="geometry" />
        </mxCell>
        <mxCell id="cYfilha8GZwluoW0JjjM-18" value="" style="rounded=0;whiteSpace=wrap;html=1;fillColor=#eeeeee;strokeColor=#36393d;" vertex="1" parent="1">
          <mxGeometry x="420" y="210" width="20" height="210" as="geometry" />
        </mxCell>
        <mxCell id="cYfilha8GZwluoW0JjjM-19" value="" style="rounded=0;whiteSpace=wrap;html=1;fillColor=#eeeeee;strokeColor=#36393d;" vertex="1" parent="1">
          <mxGeometry x="540" y="230" width="20" height="170" as="geometry" />
        </mxCell>
        <mxCell id="cYfilha8GZwluoW0JjjM-20" value="" style="rounded=0;whiteSpace=wrap;html=1;fillColor=#eeeeee;strokeColor=#36393d;" vertex="1" parent="1">
          <mxGeometry x="660" y="250" width="20" height="70" as="geometry" />
        </mxCell>
        <mxCell id="cYfilha8GZwluoW0JjjM-21" value="" style="rounded=0;whiteSpace=wrap;html=1;fillColor=#eeeeee;strokeColor=#36393d;" vertex="1" parent="1">
          <mxGeometry x="760" y="280" width="20" height="180" as="geometry" />
        </mxCell>
        <mxCell id="cYfilha8GZwluoW0JjjM-22" value="" style="rounded=0;whiteSpace=wrap;html=1;fillColor=#eeeeee;strokeColor=#36393d;" vertex="1" parent="1">
          <mxGeometry x="890" y="290" width="20" height="70" as="geometry" />
        </mxCell>
        <mxCell id="cYfilha8GZwluoW0JjjM-23" value="" style="endArrow=none;dashed=1;html=1;rounded=0;entryX=0.5;entryY=1;entryDx=0;entryDy=0;" edge="1" parent="1" source="cYfilha8GZwluoW0JjjM-51" target="cYfilha8GZwluoW0JjjM-2">
          <mxGeometry width="50" height="50" relative="1" as="geometry">
            <mxPoint x="200" y="520" as="sourcePoint" />
            <mxPoint x="280" y="190" as="targetPoint" />
          </mxGeometry>
        </mxCell>
        <mxCell id="cYfilha8GZwluoW0JjjM-24" value="" style="endArrow=none;dashed=1;html=1;rounded=0;entryX=0.5;entryY=0;entryDx=0;entryDy=0;exitX=0.5;exitY=1;exitDx=0;exitDy=0;" edge="1" parent="1" source="cYfilha8GZwluoW0JjjM-4" target="cYfilha8GZwluoW0JjjM-16">
          <mxGeometry width="50" height="50" relative="1" as="geometry">
            <mxPoint x="400" y="160" as="sourcePoint" />
            <mxPoint x="450" y="110" as="targetPoint" />
          </mxGeometry>
        </mxCell>
        <mxCell id="cYfilha8GZwluoW0JjjM-25" value="" style="endArrow=none;dashed=1;html=1;rounded=0;exitX=0.48;exitY=1.096;exitDx=0;exitDy=0;exitPerimeter=0;entryX=0.5;entryY=0;entryDx=0;entryDy=0;" edge="1" parent="1" source="cYfilha8GZwluoW0JjjM-5" target="cYfilha8GZwluoW0JjjM-18">
          <mxGeometry width="50" height="50" relative="1" as="geometry">
            <mxPoint x="489.66999999999996" y="160" as="sourcePoint" />
            <mxPoint x="430" y="180" as="targetPoint" />
          </mxGeometry>
        </mxCell>
        <mxCell id="cYfilha8GZwluoW0JjjM-26" value="" style="endArrow=none;dashed=1;html=1;rounded=0;entryX=0.5;entryY=1;entryDx=0;entryDy=0;exitX=0.5;exitY=0;exitDx=0;exitDy=0;" edge="1" parent="1" source="cYfilha8GZwluoW0JjjM-19" target="cYfilha8GZwluoW0JjjM-6">
          <mxGeometry width="50" height="50" relative="1" as="geometry">
            <mxPoint x="420" y="180" as="sourcePoint" />
            <mxPoint x="470" y="200" as="targetPoint" />
          </mxGeometry>
        </mxCell>
        <mxCell id="cYfilha8GZwluoW0JjjM-27" value="" style="endArrow=none;dashed=1;html=1;rounded=0;entryX=0.5;entryY=1;entryDx=0;entryDy=0;exitX=0.5;exitY=0;exitDx=0;exitDy=0;" edge="1" parent="1" source="cYfilha8GZwluoW0JjjM-20" target="cYfilha8GZwluoW0JjjM-7">
          <mxGeometry width="50" height="50" relative="1" as="geometry">
            <mxPoint x="730" y="190" as="sourcePoint" />
            <mxPoint x="730" y="170" as="targetPoint" />
          </mxGeometry>
        </mxCell>
        <mxCell id="cYfilha8GZwluoW0JjjM-28" value="" style="endArrow=none;dashed=1;html=1;rounded=0;entryX=0.5;entryY=1;entryDx=0;entryDy=0;exitX=0.5;exitY=0;exitDx=0;exitDy=0;" edge="1" parent="1" source="cYfilha8GZwluoW0JjjM-21" target="cYfilha8GZwluoW0JjjM-8">
          <mxGeometry width="50" height="50" relative="1" as="geometry">
            <mxPoint x="890" y="190" as="sourcePoint" />
            <mxPoint x="890" y="170" as="targetPoint" />
          </mxGeometry>
        </mxCell>
        <mxCell id="cYfilha8GZwluoW0JjjM-29" value="" style="endArrow=none;dashed=1;html=1;rounded=0;entryX=0.5;entryY=1;entryDx=0;entryDy=0;exitX=0.5;exitY=0;exitDx=0;exitDy=0;" edge="1" parent="1" source="cYfilha8GZwluoW0JjjM-22" target="cYfilha8GZwluoW0JjjM-9">
          <mxGeometry width="50" height="50" relative="1" as="geometry">
            <mxPoint x="900" y="200" as="sourcePoint" />
            <mxPoint x="900" y="180" as="targetPoint" />
          </mxGeometry>
        </mxCell>
        <mxCell id="cYfilha8GZwluoW0JjjM-30" value="" style="endArrow=classic;html=1;rounded=0;verticalAlign=bottom;entryX=0;entryY=0.167;entryDx=0;entryDy=0;entryPerimeter=0;" edge="1" parent="1" target="cYfilha8GZwluoW0JjjM-51">
          <mxGeometry width="50" height="50" relative="1" as="geometry">
            <mxPoint x="110" y="180" as="sourcePoint" />
            <mxPoint x="200" y="180" as="targetPoint" />
          </mxGeometry>
        </mxCell>
        <mxCell id="cYfilha8GZwluoW0JjjM-31" value="/route" style="edgeLabel;html=1;align=center;verticalAlign=bottom;resizable=0;points=[];" vertex="1" connectable="0" parent="cYfilha8GZwluoW0JjjM-30">
          <mxGeometry relative="1" as="geometry">
            <mxPoint as="offset" />
          </mxGeometry>
        </mxCell>
        <mxCell id="cYfilha8GZwluoW0JjjM-32" value="" style="endArrow=classic;html=1;rounded=0;entryX=-0.083;entryY=0.07;entryDx=0;entryDy=0;entryPerimeter=0;" edge="1" parent="1" target="cYfilha8GZwluoW0JjjM-16">
          <mxGeometry width="50" height="50" relative="1" as="geometry">
            <mxPoint x="200" y="200" as="sourcePoint" />
            <mxPoint x="290" y="150" as="targetPoint" />
          </mxGeometry>
        </mxCell>
        <mxCell id="cYfilha8GZwluoW0JjjM-33" value="Redirected&amp;nbsp;&lt;div&gt;to view&lt;/div&gt;" style="edgeLabel;html=1;align=center;verticalAlign=bottom;resizable=0;points=[];" vertex="1" connectable="0" parent="cYfilha8GZwluoW0JjjM-32">
          <mxGeometry relative="1" as="geometry">
            <mxPoint as="offset" />
          </mxGeometry>
        </mxCell>
        <mxCell id="cYfilha8GZwluoW0JjjM-34" value="" style="endArrow=classic;html=1;rounded=0;exitX=1.05;exitY=0.156;exitDx=0;exitDy=0;exitPerimeter=0;" edge="1" parent="1" source="cYfilha8GZwluoW0JjjM-16">
          <mxGeometry width="50" height="50" relative="1" as="geometry">
            <mxPoint x="340" y="220" as="sourcePoint" />
            <mxPoint x="418" y="220" as="targetPoint" />
          </mxGeometry>
        </mxCell>
        <mxCell id="cYfilha8GZwluoW0JjjM-35" value="Interacts with&amp;nbsp;&lt;div&gt;controller&lt;/div&gt;" style="edgeLabel;html=1;align=center;verticalAlign=bottom;resizable=0;points=[];" vertex="1" connectable="0" parent="cYfilha8GZwluoW0JjjM-34">
          <mxGeometry relative="1" as="geometry">
            <mxPoint as="offset" />
          </mxGeometry>
        </mxCell>
        <mxCell id="cYfilha8GZwluoW0JjjM-36" value="" style="endArrow=classic;html=1;rounded=0;exitX=0.979;exitY=0.143;exitDx=0;exitDy=0;exitPerimeter=0;" edge="1" parent="1" source="cYfilha8GZwluoW0JjjM-18">
          <mxGeometry width="50" height="50" relative="1" as="geometry">
            <mxPoint x="500" y="240" as="sourcePoint" />
            <mxPoint x="540" y="240" as="targetPoint" />
          </mxGeometry>
        </mxCell>
        <mxCell id="cYfilha8GZwluoW0JjjM-37" value="Call service to&amp;nbsp;&lt;div&gt;retrieve data&lt;/div&gt;" style="edgeLabel;html=1;align=center;verticalAlign=bottom;resizable=0;points=[];" vertex="1" connectable="0" parent="cYfilha8GZwluoW0JjjM-36">
          <mxGeometry relative="1" as="geometry">
            <mxPoint as="offset" />
          </mxGeometry>
        </mxCell>
        <mxCell id="cYfilha8GZwluoW0JjjM-38" value="" style="endArrow=classic;rounded=0;entryX=-0.021;entryY=0.606;entryDx=0;entryDy=0;entryPerimeter=0;html=1;exitX=1.145;exitY=0.378;exitDx=0;exitDy=0;exitPerimeter=0;" edge="1" parent="1" source="cYfilha8GZwluoW0JjjM-19" target="cYfilha8GZwluoW0JjjM-20">
          <mxGeometry width="50" height="50" relative="1" as="geometry">
            <mxPoint x="680" y="260" as="sourcePoint" />
            <mxPoint x="730" y="210" as="targetPoint" />
          </mxGeometry>
        </mxCell>
        <mxCell id="cYfilha8GZwluoW0JjjM-39" value="HTTP request&amp;nbsp;&lt;div&gt;to endpoints&lt;/div&gt;" style="edgeLabel;html=1;align=center;verticalAlign=bottom;resizable=0;points=[];" vertex="1" connectable="0" parent="cYfilha8GZwluoW0JjjM-38">
          <mxGeometry relative="1" as="geometry">
            <mxPoint as="offset" />
          </mxGeometry>
        </mxCell>
        <mxCell id="cYfilha8GZwluoW0JjjM-40" value="" style="endArrow=classic;html=1;rounded=0;entryX=-0.069;entryY=0.103;entryDx=0;entryDy=0;entryPerimeter=0;exitX=1.026;exitY=0.674;exitDx=0;exitDy=0;exitPerimeter=0;" edge="1" parent="1" source="cYfilha8GZwluoW0JjjM-20" target="cYfilha8GZwluoW0JjjM-21">
          <mxGeometry width="50" height="50" relative="1" as="geometry">
            <mxPoint x="860" y="280" as="sourcePoint" />
            <mxPoint x="1030" y="280" as="targetPoint" />
          </mxGeometry>
        </mxCell>
        <mxCell id="cYfilha8GZwluoW0JjjM-41" value="Redirect to&amp;nbsp;&lt;div&gt;controller&lt;/div&gt;" style="edgeLabel;html=1;align=center;verticalAlign=bottom;resizable=0;points=[];" vertex="1" connectable="0" parent="cYfilha8GZwluoW0JjjM-40">
          <mxGeometry relative="1" as="geometry">
            <mxPoint as="offset" />
          </mxGeometry>
        </mxCell>
        <mxCell id="cYfilha8GZwluoW0JjjM-42" value="" style="endArrow=classic;html=1;rounded=0;entryX=0;entryY=0.143;entryDx=0;entryDy=0;entryPerimeter=0;exitX=1.074;exitY=0.117;exitDx=0;exitDy=0;exitPerimeter=0;" edge="1" parent="1" source="cYfilha8GZwluoW0JjjM-21" target="cYfilha8GZwluoW0JjjM-22">
          <mxGeometry width="50" height="50" relative="1" as="geometry">
            <mxPoint x="1040" y="300" as="sourcePoint" />
            <mxPoint x="1090" y="250" as="targetPoint" />
          </mxGeometry>
        </mxCell>
        <mxCell id="cYfilha8GZwluoW0JjjM-43" value="Request through&amp;nbsp;&lt;div&gt;mongoose ODM&lt;/div&gt;" style="edgeLabel;html=1;align=center;verticalAlign=bottom;resizable=1;points=[];" vertex="1" connectable="0" parent="cYfilha8GZwluoW0JjjM-42">
          <mxGeometry relative="1" as="geometry">
            <mxPoint as="offset" />
          </mxGeometry>
        </mxCell>
        <mxCell id="cYfilha8GZwluoW0JjjM-45" value="" style="curved=1;endArrow=classic;html=1;rounded=0;entryX=0.978;entryY=0.521;entryDx=0;entryDy=0;entryPerimeter=0;" edge="1" parent="1">
          <mxGeometry width="50" height="50" relative="1" as="geometry">
            <mxPoint x="910.44" y="311.77" as="sourcePoint" />
            <mxPoint x="910" y="338.24" as="targetPoint" />
            <Array as="points">
              <mxPoint x="950.44" y="311.77" />
              <mxPoint x="950.44" y="331.77" />
            </Array>
          </mxGeometry>
        </mxCell>
        <mxCell id="cYfilha8GZwluoW0JjjM-46" value="Process&amp;nbsp;&lt;div&gt;request&lt;/div&gt;" style="edgeLabel;html=1;align=center;verticalAlign=middle;resizable=0;points=[];" vertex="1" connectable="0" parent="cYfilha8GZwluoW0JjjM-45">
          <mxGeometry x="-0.3662" y="-4" relative="1" as="geometry">
            <mxPoint x="28" y="6" as="offset" />
          </mxGeometry>
        </mxCell>
        <mxCell id="cYfilha8GZwluoW0JjjM-47" value="" style="endArrow=classic;html=1;rounded=0;entryX=1.074;entryY=0.384;entryDx=0;entryDy=0;entryPerimeter=0;dashed=1;exitX=-0.093;exitY=0.851;exitDx=0;exitDy=0;exitPerimeter=0;" edge="1" parent="1" source="cYfilha8GZwluoW0JjjM-22" target="cYfilha8GZwluoW0JjjM-21">
          <mxGeometry width="50" height="50" relative="1" as="geometry">
            <mxPoint x="880" y="350" as="sourcePoint" />
            <mxPoint x="870" y="340" as="targetPoint" />
          </mxGeometry>
        </mxCell>
        <mxCell id="cYfilha8GZwluoW0JjjM-48" value="Callback" style="edgeLabel;html=1;align=center;verticalAlign=bottom;resizable=0;points=[];" vertex="1" connectable="0" parent="cYfilha8GZwluoW0JjjM-47">
          <mxGeometry relative="1" as="geometry">
            <mxPoint as="offset" />
          </mxGeometry>
        </mxCell>
        <mxCell id="cYfilha8GZwluoW0JjjM-49" value="" style="endArrow=classic;html=1;rounded=0;exitX=-0.083;exitY=0.605;exitDx=0;exitDy=0;exitPerimeter=0;dashed=1;" edge="1" parent="1">
          <mxGeometry width="50" height="50" relative="1" as="geometry">
            <mxPoint x="760" y="370" as="sourcePoint" />
            <mxPoint x="561" y="370" as="targetPoint" />
          </mxGeometry>
        </mxCell>
        <mxCell id="cYfilha8GZwluoW0JjjM-50" value="res.json" style="edgeLabel;html=1;align=center;verticalAlign=bottom;resizable=0;points=[];" vertex="1" connectable="0" parent="cYfilha8GZwluoW0JjjM-49">
          <mxGeometry relative="1" as="geometry">
            <mxPoint as="offset" />
          </mxGeometry>
        </mxCell>
        <mxCell id="cYfilha8GZwluoW0JjjM-52" value="" style="endArrow=none;dashed=1;html=1;rounded=0;entryX=0.5;entryY=1;entryDx=0;entryDy=0;" edge="1" parent="1" target="cYfilha8GZwluoW0JjjM-51">
          <mxGeometry width="50" height="50" relative="1" as="geometry">
            <mxPoint x="200" y="460" as="sourcePoint" />
            <mxPoint x="200" y="160" as="targetPoint" />
          </mxGeometry>
        </mxCell>
        <mxCell id="cYfilha8GZwluoW0JjjM-51" value="" style="rounded=0;whiteSpace=wrap;html=1;fillColor=#eeeeee;strokeColor=#36393d;" vertex="1" parent="1">
          <mxGeometry x="190" y="170" width="20" height="60" as="geometry" />
        </mxCell>
        <mxCell id="cYfilha8GZwluoW0JjjM-53" value="" style="endArrow=classic;html=1;rounded=0;entryX=1.074;entryY=0.803;entryDx=0;entryDy=0;entryPerimeter=0;dashed=1;" edge="1" parent="1" target="cYfilha8GZwluoW0JjjM-18">
          <mxGeometry width="50" height="50" relative="1" as="geometry">
            <mxPoint x="540" y="380" as="sourcePoint" />
            <mxPoint x="590" y="330" as="targetPoint" />
          </mxGeometry>
        </mxCell>
        <mxCell id="cYfilha8GZwluoW0JjjM-54" value="Results object" style="edgeLabel;html=1;align=center;verticalAlign=bottom;resizable=0;points=[];" vertex="1" connectable="0" parent="cYfilha8GZwluoW0JjjM-53">
          <mxGeometry relative="1" as="geometry">
            <mxPoint as="offset" />
          </mxGeometry>
        </mxCell>
        <mxCell id="cYfilha8GZwluoW0JjjM-55" value="" style="endArrow=classic;html=1;rounded=0;entryX=1.074;entryY=0.803;entryDx=0;entryDy=0;entryPerimeter=0;dashed=1;" edge="1" parent="1">
          <mxGeometry width="50" height="50" relative="1" as="geometry">
            <mxPoint x="420" y="401" as="sourcePoint" />
            <mxPoint x="321" y="400" as="targetPoint" />
          </mxGeometry>
        </mxCell>
        <mxCell id="cYfilha8GZwluoW0JjjM-56" value="Display View" style="edgeLabel;html=1;align=center;verticalAlign=bottom;resizable=0;points=[];" vertex="1" connectable="0" parent="cYfilha8GZwluoW0JjjM-55">
          <mxGeometry relative="1" as="geometry">
            <mxPoint as="offset" />
          </mxGeometry>
        </mxCell>
        <mxCell id="cYfilha8GZwluoW0JjjM-57" value="" style="shape=mxgraph.sysml.x;" vertex="1" parent="1">
          <mxGeometry x="300" y="440" width="20" height="25" as="geometry" />
        </mxCell>
      </root>
    </mxGraphModel>
  </diagram>
</mxfile>
